<svg xmlns="http://www.w3.org/2000/svg" xmlns:xlink="http://www.w3.org/1999/xlink" width="500" zoomAndPan="magnify" viewBox="0 0 375 374.999991" height="500" preserveAspectRatio="xMidYMid meet" version="1.2"><defs><clipPath id="1fe06eb843"><path d="M 177.929688 112.324219 L 327.929688 112.324219 L 327.929688 262.324219 L 177.929688 262.324219 Z M 177.929688 112.324219 "/></clipPath><clipPath id="6940fee858"><path d="M 177.070312 110.601562 L 328.570312 110.601562 L 328.570312 262.101562 L 177.070312 262.101562 Z M 177.070312 110.601562 "/></clipPath><clipPath id="af3635078e"><path d="M 47.070312 112.675781 L 197.070312 112.675781 L 197.070312 262.675781 L 47.070312 262.675781 Z M 47.070312 112.675781 "/></clipPath><clipPath id="2f16fdc6e4"><path d="M 45.988281 112.675781 L 197.488281 112.675781 L 197.488281 264.175781 L 45.988281 264.175781 Z M 45.988281 112.675781 "/></clipPath></defs><g id="8e6068091b"><g clip-rule="nonzero" clip-path="url(#1fe06eb843)"><path style=" stroke:none;fill-rule:nonzero;fill:#a64d79;fill-opacity:1;" d="M 252.929688 112.324219 C 294.359375 112.324219 327.929688 145.894531 327.929688 187.324219 C 327.929688 228.753906 294.359375 262.324219 252.929688 262.324219 C 211.5 262.324219 177.929688 228.753906 177.929688 187.324219 C 177.929688 145.894531 211.5 112.324219 252.929688 112.324219 Z M 252.929688 112.324219 "/></g><path style=" stroke:none;fill-rule:nonzero;fill:#ff5c16;fill-opacity:1;" d="M 292.4375 227.914062 L 272.828125 222.074219 L 258.039062 230.914062 L 247.722656 230.910156 L 232.925781 222.074219 L 213.328125 227.914062 L 207.363281 207.785156 L 213.328125 185.449219 L 207.363281 166.5625 L 213.328125 143.15625 L 243.953125 161.453125 L 261.808594 161.453125 L 292.4375 143.15625 L 298.398438 166.5625 L 292.4375 185.449219 L 298.398438 207.785156 Z M 292.4375 227.914062 "/><path style=" stroke:none;fill-rule:nonzero;fill:#ff5c16;fill-opacity:1;" d="M 213.332031 143.15625 L 243.957031 161.46875 L 242.738281 174.03125 Z M 213.332031 143.15625 "/><path style=" stroke:none;fill-rule:nonzero;fill:#ff5c16;fill-opacity:1;" d="M 232.929688 207.792969 L 246.40625 218.058594 L 232.929688 222.074219 Z M 232.929688 207.792969 "/><path style=" stroke:none;fill-rule:nonzero;fill:#ff5c16;fill-opacity:1;" d="M 245.328125 190.824219 L 242.738281 174.042969 L 226.160156 185.453125 L 226.152344 185.449219 L 226.152344 185.457031 L 226.203125 197.203125 L 232.925781 190.824219 Z M 245.328125 190.824219 "/><path style=" stroke:none;fill-rule:nonzero;fill:#ff5c16;fill-opacity:1;" d="M 292.4375 143.15625 L 261.808594 161.46875 L 263.023438 174.03125 Z M 292.4375 143.15625 "/><path style=" stroke:none;fill-rule:nonzero;fill:#ff5c16;fill-opacity:1;" d="M 272.835938 207.792969 L 259.359375 218.058594 L 272.835938 222.074219 Z M 272.835938 207.792969 "/><path style=" stroke:none;fill-rule:nonzero;fill:#ff5c16;fill-opacity:1;" d="M 279.609375 185.457031 L 279.613281 185.457031 L 279.609375 185.457031 L 279.609375 185.449219 L 279.605469 185.453125 L 263.027344 174.042969 L 260.4375 190.824219 L 272.835938 190.824219 L 279.5625 197.203125 Z M 279.609375 185.457031 "/><path style=" stroke:none;fill-rule:nonzero;fill:#e34807;fill-opacity:1;" d="M 232.925781 222.074219 L 213.328125 227.914062 L 207.363281 207.792969 L 232.925781 207.792969 Z M 232.925781 222.074219 "/><path style=" stroke:none;fill-rule:nonzero;fill:#e34807;fill-opacity:1;" d="M 245.324219 190.820312 L 249.070312 215.082031 L 243.882812 201.589844 L 226.195312 197.203125 L 232.921875 190.820312 Z M 245.324219 190.820312 "/><path style=" stroke:none;fill-rule:nonzero;fill:#e34807;fill-opacity:1;" d="M 272.835938 222.074219 L 292.4375 227.914062 L 298.398438 207.792969 L 272.835938 207.792969 Z M 272.835938 222.074219 "/><path style=" stroke:none;fill-rule:nonzero;fill:#e34807;fill-opacity:1;" d="M 260.4375 190.820312 L 256.695312 215.082031 L 261.882812 201.589844 L 279.566406 197.203125 L 272.835938 190.820312 Z M 260.4375 190.820312 "/><path style=" stroke:none;fill-rule:nonzero;fill:#ff8d5d;fill-opacity:1;" d="M 207.363281 207.785156 L 213.328125 185.449219 L 226.148438 185.449219 L 226.195312 197.199219 L 243.882812 201.585938 L 249.070312 215.074219 L 246.402344 218.046875 L 232.925781 207.78125 L 207.363281 207.78125 Z M 207.363281 207.785156 "/><path style=" stroke:none;fill-rule:nonzero;fill:#ff8d5d;fill-opacity:1;" d="M 298.398438 207.785156 L 292.4375 185.449219 L 279.613281 185.449219 L 279.566406 197.199219 L 261.882812 201.585938 L 256.695312 215.074219 L 259.359375 218.046875 L 272.835938 207.78125 L 298.398438 207.78125 Z M 298.398438 207.785156 "/><path style=" stroke:none;fill-rule:nonzero;fill:#ff8d5d;fill-opacity:1;" d="M 261.808594 161.453125 L 243.953125 161.453125 L 242.738281 174.019531 L 249.070312 215.0625 L 256.695312 215.0625 L 263.027344 174.019531 Z M 261.808594 161.453125 "/><path style=" stroke:none;fill-rule:nonzero;fill:#661800;fill-opacity:1;" d="M 213.328125 143.15625 L 207.363281 166.5625 L 213.328125 185.449219 L 226.148438 185.449219 L 242.734375 174.03125 Z M 213.328125 143.15625 "/><path style=" stroke:none;fill-rule:nonzero;fill:#661800;fill-opacity:1;" d="M 241.621094 195.691406 L 235.8125 195.691406 L 232.648438 198.792969 L 243.886719 201.578125 L 241.621094 195.6875 Z M 241.621094 195.691406 "/><path style=" stroke:none;fill-rule:nonzero;fill:#661800;fill-opacity:1;" d="M 292.4375 143.15625 L 298.398438 166.5625 L 292.4375 185.449219 L 279.613281 185.449219 L 263.027344 174.03125 Z M 292.4375 143.15625 "/><path style=" stroke:none;fill-rule:nonzero;fill:#661800;fill-opacity:1;" d="M 264.152344 195.691406 L 269.96875 195.691406 L 273.132812 198.796875 L 261.882812 201.585938 L 264.152344 195.6875 Z M 264.152344 195.691406 "/><path style=" stroke:none;fill-rule:nonzero;fill:#661800;fill-opacity:1;" d="M 258.035156 222.90625 L 259.359375 218.054688 L 256.695312 215.085938 L 249.066406 215.085938 L 246.398438 218.054688 L 247.722656 222.90625 "/><path style=" stroke:none;fill-rule:nonzero;fill:#c0c4cd;fill-opacity:1;" d="M 247.722656 222.90625 L 258.035156 222.90625 L 258.035156 230.917969 L 247.722656 230.917969 Z M 247.722656 222.90625 "/><path style=" stroke:none;fill-rule:nonzero;fill:#e7ebf6;fill-opacity:1;" d="M 232.929688 222.066406 L 247.730469 230.914062 L 247.730469 222.902344 L 246.40625 218.050781 Z M 232.929688 222.066406 "/><path style=" stroke:none;fill-rule:nonzero;fill:#e7ebf6;fill-opacity:1;" d="M 272.835938 222.066406 L 258.035156 230.914062 L 258.035156 222.902344 L 259.359375 218.050781 Z M 272.835938 222.066406 "/><g clip-rule="nonzero" clip-path="url(#6940fee858)"><path style=" stroke:none;fill-rule:nonzero;fill:#000000;fill-opacity:1;" d="M 252.820312 114.132812 C 262.570312 114.132812 272.027344 116.042969 280.929688 119.808594 C 289.527344 123.445312 297.253906 128.65625 303.886719 135.289062 C 310.519531 141.917969 315.730469 149.648438 319.367188 158.246094 C 323.132812 167.148438 325.042969 176.605469 325.042969 186.355469 C 325.042969 196.105469 323.132812 205.5625 319.367188 214.464844 C 315.730469 223.066406 310.519531 230.789062 303.886719 237.425781 C 297.253906 244.058594 289.527344 249.265625 280.929688 252.902344 C 272.027344 256.667969 262.570312 258.578125 252.820312 258.578125 C 243.070312 258.578125 233.613281 256.667969 224.707031 252.902344 C 216.109375 249.265625 208.386719 244.058594 201.75 237.425781 C 195.117188 230.792969 189.910156 223.066406 186.273438 214.464844 C 182.507812 205.5625 180.597656 196.105469 180.597656 186.355469 C 180.597656 176.605469 182.507812 167.148438 186.273438 158.246094 C 189.910156 149.648438 195.117188 141.921875 201.75 135.289062 C 208.382812 128.65625 216.109375 123.445312 224.707031 119.808594 C 233.613281 116.042969 243.070312 114.132812 252.820312 114.132812 M 252.820312 110.601562 C 210.980469 110.601562 177.070312 144.515625 177.070312 186.351562 C 177.070312 228.191406 210.980469 262.101562 252.820312 262.101562 C 294.65625 262.101562 328.570312 228.191406 328.570312 186.351562 C 328.570312 144.515625 294.65625 110.601562 252.820312 110.601562 Z M 252.820312 110.601562 "/></g><path style=" stroke:none;fill-rule:nonzero;fill:#000000;fill-opacity:1;" d="M 252.757812 119.761719 C 261.792969 119.761719 270.554688 121.527344 278.800781 125.019531 C 286.765625 128.386719 293.921875 133.210938 300.066406 139.355469 C 306.210938 145.5 311.035156 152.65625 314.40625 160.621094 C 317.894531 168.867188 319.664062 177.628906 319.664062 186.664062 C 319.664062 195.695312 317.894531 204.457031 314.40625 212.703125 C 311.035156 220.671875 306.210938 227.828125 300.066406 233.972656 C 293.921875 240.117188 286.765625 244.941406 278.800781 248.308594 C 270.554688 251.796875 261.792969 253.566406 252.757812 253.566406 C 243.726562 253.566406 234.964844 251.796875 226.71875 248.308594 C 218.75 244.941406 211.597656 240.117188 205.453125 233.972656 C 199.308594 227.828125 194.484375 220.671875 191.113281 212.703125 C 187.625 204.457031 185.855469 195.695312 185.855469 186.664062 C 185.855469 177.628906 187.625 168.867188 191.113281 160.621094 C 194.484375 152.65625 199.308594 145.5 205.453125 139.355469 C 211.597656 133.210938 218.75 128.386719 226.71875 125.019531 C 234.964844 121.527344 243.726562 119.761719 252.757812 119.761719 M 252.757812 117.992188 C 214.835938 117.992188 184.09375 148.734375 184.09375 186.660156 C 184.09375 224.585938 214.835938 255.324219 252.757812 255.324219 C 290.683594 255.324219 321.425781 224.585938 321.425781 186.660156 C 321.425781 148.734375 290.683594 117.992188 252.757812 117.992188 Z M 252.757812 117.992188 "/><g clip-rule="nonzero" clip-path="url(#af3635078e)"><path style=" stroke:none;fill-rule:nonzero;fill:#c7d0d8;fill-opacity:1;" d="M 122.070312 112.675781 C 163.5 112.675781 197.070312 146.246094 197.070312 187.675781 C 197.070312 229.105469 163.5 262.675781 122.070312 262.675781 C 80.640625 262.675781 47.070312 229.105469 47.070312 187.675781 C 47.070312 146.246094 80.640625 112.675781 122.070312 112.675781 Z M 122.070312 112.675781 "/></g><path style=" stroke:none;fill-rule:nonzero;fill:#b7410e;fill-opacity:1;" d="M 165.960938 150.855469 C 165.601562 149.78125 165.070312 148.78125 164.3125 147.917969 C 163.167969 146.609375 161.691406 145.628906 160.136719 144.847656 C 155.523438 142.53125 149.957031 142.882812 145.515625 145.421875 C 141.480469 147.730469 138.472656 151.578125 136.589844 155.824219 C 136.28125 156.527344 136.003906 157.359375 136.382812 158.027344 C 137.054688 159.199219 139.074219 158.902344 140.007812 158.25 C 140.84375 157.660156 141.160156 155.820312 141.78125 155.007812 C 144.4375 151.539062 148.613281 148.8125 153.179688 148.304688 C 157.453125 147.828125 161.121094 150.976562 161.96875 155.074219 C 162.953125 159.816406 159.679688 161.945312 156.242188 163.578125 C 152.808594 165.214844 142.175781 164.726562 142.175781 164.726562 C 142.175781 164.726562 137.101562 173.070312 135.792969 173.886719 C 123.359375 170.289062 114.035156 174.050781 111.582031 173.886719 C 109.453125 168.160156 93.09375 144.929688 91.785156 143.949219 C 90.476562 142.964844 87.207031 142.640625 85.570312 147.21875 C 83.933594 151.800781 77.554688 207.425781 77.554688 207.425781 L 82.132812 207.75 L 82.132812 195.972656 L 84.914062 196.789062 L 84.914062 208.894531 L 87.695312 209.878906 L 87.695312 197.445312 L 91.132812 198.097656 L 91.132812 211.023438 C 91.132812 211.023438 94.074219 211.023438 94.078125 211.023438 C 93.761719 211.023438 92.125 156.28125 91.949219 151.308594 C 97.292969 159.816406 102.640625 168.324219 107.984375 176.832031 C 107.777344 176.5 100.679688 184.027344 100.15625 184.847656 C 98.496094 187.449219 97.648438 190.640625 97.289062 193.675781 C 96.511719 200.1875 97.824219 207.289062 101.113281 212.988281 C 103.140625 216.503906 106.832031 218.710938 110.214844 220.742188 C 111.480469 221.503906 111.519531 222.324219 111.90625 223.785156 C 107.054688 224.058594 102.203125 224.328125 97.347656 224.601562 C 97.347656 226.621094 97.347656 228.636719 97.347656 230.65625 C 97.347656 230.65625 138.367188 230.65625 142.628906 230.65625 C 145.203125 230.65625 147.777344 230.65625 150.355469 230.65625 C 150.355469 230.65625 151.3125 224.273438 151.3125 224.273438 C 146.246094 223.894531 141.179688 223.511719 136.113281 223.128906 C 136.109375 221.386719 136.253906 221.429688 137.796875 220.671875 C 140.769531 219.210938 143.273438 217.558594 145.324219 214.910156 C 147.964844 211.503906 149.335938 207.238281 150.070312 203.042969 C 151.136719 196.960938 150.308594 191.566406 148.0625 185.828125 C 146.589844 182.066406 140.703125 176.339844 140.703125 176.339844 L 146.429688 168.578125 C 150.644531 168.488281 155.183594 168.929688 159.222656 167.503906 C 163.625 165.953125 165.980469 161.625 166.46875 157.144531 C 166.691406 155.097656 166.625 152.851562 165.960938 150.855469 Z M 131.160156 182.394531 L 123.851562 192.753906 C 123.851562 192.753906 117.007812 182.5625 117.308594 182.394531 C 124.398438 178.359375 131.160156 182.394531 131.160156 182.394531 Z M 112.179688 184.792969 L 121.34375 197.554688 L 112.179688 212.167969 C 112.179688 212.167969 97.785156 198.535156 112.179688 184.792969 Z M 115.671875 214.894531 C 115.671875 214.894531 123.742188 203.550781 124.226562 203.226562 C 124.226562 203.226562 131.160156 213.804688 131.160156 214.894531 C 122.980469 218.710938 115.671875 214.894531 115.671875 214.894531 Z M 135.957031 211.730469 C 135.195312 210.96875 126.90625 197.988281 126.90625 197.988281 C 127.449219 197.664062 135.414062 184.792969 135.414062 184.792969 C 135.414062 184.792969 149.371094 196.136719 135.957031 211.730469 Z M 135.957031 211.730469 "/><g clip-rule="nonzero" clip-path="url(#2f16fdc6e4)"><path style=" stroke:none;fill-rule:nonzero;fill:#000000;fill-opacity:1;" d="M 121.738281 116.207031 C 131.488281 116.207031 140.945312 118.117188 149.847656 121.882812 C 158.449219 125.519531 166.171875 130.726562 172.808594 137.359375 C 179.441406 143.992188 184.648438 151.71875 188.285156 160.316406 C 192.050781 169.21875 193.960938 178.675781 193.960938 188.429688 C 193.960938 198.179688 192.050781 207.636719 188.285156 216.539062 C 184.648438 225.136719 179.441406 232.859375 172.808594 239.496094 C 166.175781 246.132812 158.449219 251.335938 149.847656 254.976562 C 140.945312 258.738281 131.488281 260.648438 121.738281 260.648438 C 111.988281 260.648438 102.53125 258.738281 93.628906 254.976562 C 85.03125 251.335938 77.304688 246.128906 70.671875 239.496094 C 64.039062 232.863281 58.828125 225.136719 55.191406 216.539062 C 51.425781 207.636719 49.515625 198.179688 49.515625 188.429688 C 49.515625 178.675781 51.425781 169.21875 55.191406 160.316406 C 58.828125 151.71875 64.039062 143.996094 70.671875 137.359375 C 77.300781 130.726562 85.03125 125.519531 93.628906 121.882812 C 102.53125 118.117188 111.988281 116.207031 121.738281 116.207031 M 121.738281 112.675781 C 79.902344 112.675781 45.988281 146.585938 45.988281 188.425781 C 45.988281 230.261719 79.902344 264.175781 121.738281 264.175781 C 163.578125 264.175781 197.488281 230.261719 197.488281 188.425781 C 197.488281 146.585938 163.578125 112.675781 121.738281 112.675781 Z M 121.738281 112.675781 "/></g><path style=" stroke:none;fill-rule:nonzero;fill:#000000;fill-opacity:1;" d="M 121.679688 121.832031 C 130.710938 121.832031 139.472656 123.601562 147.71875 127.089844 C 155.6875 130.457031 162.84375 135.28125 168.988281 141.425781 C 175.132812 147.574219 179.957031 154.726562 183.324219 162.695312 C 186.8125 170.941406 188.582031 179.703125 188.582031 188.734375 C 188.582031 197.769531 186.8125 206.53125 183.324219 214.777344 C 179.957031 222.742188 175.132812 229.898438 168.988281 236.042969 C 162.84375 242.1875 155.6875 247.011719 147.71875 250.378906 C 139.472656 253.871094 130.710938 255.640625 121.679688 255.640625 C 112.644531 255.640625 103.882812 253.871094 95.636719 250.378906 C 87.671875 247.011719 80.515625 242.1875 74.371094 236.042969 C 68.226562 229.898438 63.402344 222.742188 60.035156 214.777344 C 56.542969 206.53125 54.777344 197.769531 54.777344 188.734375 C 54.777344 179.703125 56.542969 170.941406 60.035156 162.695312 C 63.402344 154.726562 68.226562 147.574219 74.371094 141.425781 C 80.515625 135.28125 87.671875 130.457031 95.636719 127.089844 C 103.882812 123.601562 112.644531 121.832031 121.679688 121.832031 M 121.679688 120.066406 C 83.753906 120.066406 53.011719 150.808594 53.011719 188.730469 C 53.011719 226.65625 83.753906 257.398438 121.679688 257.398438 C 159.601562 257.398438 190.34375 226.65625 190.34375 188.730469 C 190.34375 150.808594 159.601562 120.066406 121.679688 120.066406 Z M 121.679688 120.066406 "/></g></svg>